<?xml version="1.0" encoding="utf-8" ?>
<svg baseProfile="tiny" height="100%" version="1.2" width="100%" xmlns="http://www.w3.org/2000/svg" xmlns:ev="http://www.w3.org/2001/xml-events" xmlns:xlink="http://www.w3.org/1999/xlink"><defs /><path d="M 420 114 L 420 115 L 419 116 L 418 116 L 417 117 L 416 117 L 415 118 L 410 118 L 410 119 L 409 120 L 402 120 L 402 122 L 400 124 L 398 124 L 398 125 L 397 126 L 366 126 L 365 125 L 365 124 L 357 124 L 356 123 L 352 123 L 351 122 L 350 122 L 349 121 L 349 120 L 310 120 L 310 121 L 309 122 L 308 122 L 308 123 L 307 124 L 302 124 L 302 125 L 301 126 L 296 126 L 296 127 L 295 128 L 294 128 L 294 129 L 293 130 L 288 130 L 288 131 L 286 133 L 285 133 L 284 134 L 282 134 L 282 135 L 281 136 L 280 136 L 280 137 L 279 138 L 278 138 L 278 140 L 276 142 L 276 143 L 273 146 L 270 146 L 270 148 L 268 150 L 268 151 L 267 152 L 264 152 L 264 153 L 261 156 L 258 156 L 258 157 L 257 158 L 256 158 L 256 159 L 255 160 L 252 160 L 252 161 L 251 162 L 250 162 L 250 163 L 249 164 L 248 164 L 248 165 L 247 166 L 246 166 L 246 167 L 245 168 L 242 168 L 242 171 L 241 172 L 240 172 L 240 173 L 237 176 L 236 176 L 236 179 L 235 180 L 234 180 L 234 181 L 233 182 L 232 182 L 232 183 L 231 184 L 228 184 L 228 185 L 227 186 L 226 186 L 226 189 L 225 190 L 222 190 L 222 191 L 221 192 L 220 192 L 220 193 L 219 194 L 218 194 L 218 195 L 217 196 L 216 196 L 216 198 L 214 200 L 210 200 L 210 203 L 209 204 L 208 204 L 208 205 L 207 206 L 205 206 L 203 208 L 202 208 L 202 209 L 201 210 L 200 210 L 200 212 L 198 214 L 198 215 L 197 216 L 196 216 L 196 217 L 195 218 L 194 218 L 194 222 L 193 223 L 193 225 L 192 226 L 192 227 L 191 228 L 191 230 L 189 232 L 188 232 L 188 235 L 187 236 L 186 236 L 186 239 L 185 240 L 184 240 L 184 241 L 183 242 L 182 242 L 182 243 L 179 246 L 178 246 L 178 247 L 176 249 L 176 251 L 175 252 L 174 252 L 174 259 L 173 260 L 172 260 L 172 270 L 171 271 L 171 273 L 170 274 L 170 278 L 169 279 L 169 282 L 168 283 L 168 285 L 166 287 L 166 289 L 165 290 L 164 290 L 164 293 L 163 294 L 162 294 L 162 299 L 161 300 L 160 300 L 160 301 L 159 302 L 158 302 L 158 307 L 157 308 L 157 309 L 156 310 L 156 313 L 155 314 L 155 316 L 154 317 L 154 325 L 153 326 L 152 326 L 152 363 L 153 363 L 154 364 L 154 367 L 155 368 L 155 370 L 156 371 L 156 373 L 157 374 L 157 375 L 158 376 L 158 379 L 160 381 L 160 387 L 161 387 L 162 388 L 162 395 L 163 395 L 164 396 L 164 401 L 165 401 L 166 402 L 166 403 L 168 405 L 168 407 L 169 408 L 169 409 L 170 410 L 170 413 L 171 413 L 172 414 L 172 419 L 173 419 L 174 420 L 174 425 L 175 425 L 176 426 L 176 430 L 178 432 L 178 435 L 179 436 L 179 437 L 180 438 L 180 440 L 182 442 L 182 443 L 183 443 L 184 444 L 184 453 L 185 453 L 186 454 L 186 459 L 187 459 L 188 460 L 188 463 L 189 463 L 190 464 L 190 467 L 191 468 L 191 473 L 190 474 L 190 475 L 189 476 L 188 476 L 188 481 L 187 482 L 186 482 L 186 533 L 187 533 L 188 534 L 188 551 L 189 551 L 190 552 L 190 554 L 191 555 L 191 556 L 192 557 L 192 559 L 193 559 L 194 560 L 194 563 L 195 563 L 196 564 L 196 569 L 197 569 L 198 570 L 198 575 L 199 575 L 200 576 L 200 583 L 201 583 L 202 584 L 202 587 L 203 588 L 203 589 L 204 590 L 204 593 L 205 593 L 206 594 L 206 595 L 207 595 L 208 596 L 208 599 L 209 599 L 210 600 L 210 601 L 215 601 L 216 602 L 219 602 L 220 603 L 221 603 L 222 604 L 222 605 L 225 605 L 226 606 L 226 609 L 227 610 L 227 614 L 228 615 L 228 624 L 230 626 L 230 637 L 231 637 L 232 638 L 232 649 L 233 649 L 234 650 L 234 659 L 235 659 L 236 660 L 236 663 L 237 663 L 238 664 L 238 667 L 239 668 L 239 669 L 240 670 L 240 672 L 241 673 L 241 674 L 242 675 L 242 679 L 243 679 L 244 680 L 244 681 L 245 681 L 246 682 L 246 687 L 247 687 L 248 688 L 248 689 L 249 689 L 250 690 L 250 691 L 251 691 L 252 692 L 252 693 L 253 693 L 254 694 L 254 695 L 255 695 L 256 696 L 256 701 L 257 701 L 258 702 L 258 757 L 257 758 L 256 758 L 256 763 L 255 764 L 252 764 L 252 765 L 251 766 L 248 766 L 248 767 L 247 768 L 244 768 L 244 769 L 243 770 L 238 770 L 238 771 L 237 772 L 236 772 L 235 773 L 233 773 L 232 774 L 230 774 L 230 775 L 229 776 L 224 776 L 224 778 L 223 779 L 221 779 L 220 780 L 218 780 L 218 781 L 217 782 L 214 782 L 214 783 L 211 786 L 208 786 L 208 788 L 207 789 L 205 789 L 204 790 L 202 790 L 202 791 L 201 792 L 196 792 L 196 795 L 195 796 L 192 796 L 192 797 L 191 798 L 188 798 L 188 799 L 187 800 L 186 800 L 186 801 L 185 802 L 182 802 L 182 803 L 181 804 L 180 804 L 179 805 L 178 805 L 177 806 L 176 806 L 176 807 L 175 808 L 174 808 L 174 809 L 171 812 L 170 812 L 168 814 L 164 814 L 164 817 L 163 818 L 162 818 L 162 821 L 161 822 L 160 822 L 160 833 L 161 833 L 162 834 L 162 835 L 167 835 L 167 834 L 168 833 L 190 833 L 192 831 L 195 831 L 195 830 L 196 829 L 197 829 L 197 828 L 200 825 L 203 825 L 203 824 L 204 823 L 205 823 L 205 820 L 206 819 L 207 819 L 207 818 L 208 817 L 209 817 L 209 816 L 210 815 L 211 815 L 211 812 L 212 811 L 213 811 L 213 810 L 214 809 L 215 809 L 215 808 L 216 807 L 217 807 L 217 804 L 218 803 L 219 803 L 219 802 L 220 801 L 221 801 L 221 800 L 222 799 L 223 799 L 223 798 L 224 797 L 229 797 L 229 796 L 230 795 L 231 795 L 232 796 L 232 817 L 233 817 L 234 818 L 234 823 L 235 823 L 236 824 L 236 827 L 237 827 L 238 828 L 238 829 L 240 831 L 240 835 L 241 836 L 241 841 L 242 842 L 242 851 L 243 851 L 244 852 L 244 857 L 245 857 L 246 858 L 246 861 L 247 861 L 248 862 L 248 865 L 253 865 L 253 864 L 254 863 L 255 863 L 255 862 L 256 861 L 257 861 L 257 860 L 258 859 L 259 859 L 259 858 L 260 857 L 261 857 L 261 856 L 262 855 L 262 854 L 263 853 L 263 852 L 264 851 L 265 851 L 265 850 L 266 849 L 267 849 L 267 848 L 268 847 L 269 847 L 269 838 L 268 838 L 267 837 L 267 796 L 268 795 L 269 795 L 269 789 L 270 788 L 275 788 L 276 787 L 281 787 L 281 786 L 282 785 L 285 785 L 285 784 L 286 783 L 287 783 L 287 782 L 288 781 L 289 781 L 289 780 L 290 779 L 291 779 L 291 778 L 292 777 L 293 777 L 293 776 L 294 775 L 298 775 L 300 777 L 300 779 L 301 779 L 302 780 L 302 781 L 305 781 L 306 782 L 306 785 L 309 785 L 310 786 L 310 787 L 311 787 L 314 790 L 314 791 L 315 791 L 316 792 L 316 793 L 317 793 L 318 794 L 319 794 L 320 795 L 320 797 L 323 797 L 324 798 L 324 799 L 325 799 L 326 800 L 326 801 L 335 801 L 336 802 L 336 803 L 338 803 L 339 804 L 341 804 L 342 805 L 342 807 L 351 807 L 352 808 L 352 809 L 353 809 L 354 810 L 418 810 L 419 809 L 423 809 L 423 808 L 424 807 L 449 807 L 449 805 L 451 803 L 451 802 L 452 801 L 455 801 L 455 800 L 458 797 L 459 797 L 459 796 L 462 793 L 463 793 L 463 792 L 464 791 L 465 791 L 465 790 L 467 788 L 468 788 L 469 787 L 470 787 L 474 783 L 475 783 L 475 782 L 476 781 L 477 781 L 477 780 L 478 779 L 480 779 L 482 777 L 483 777 L 483 776 L 484 775 L 487 775 L 487 774 L 489 772 L 494 772 L 496 774 L 496 781 L 497 781 L 498 782 L 498 797 L 499 797 L 500 798 L 500 805 L 501 805 L 502 806 L 502 810 L 503 811 L 503 812 L 504 813 L 504 816 L 505 817 L 505 822 L 506 823 L 506 826 L 507 827 L 507 828 L 508 829 L 508 843 L 509 843 L 510 844 L 510 851 L 512 853 L 512 855 L 515 855 L 515 854 L 516 853 L 517 853 L 517 848 L 518 847 L 519 847 L 519 840 L 520 839 L 521 839 L 521 838 L 522 837 L 523 837 L 523 834 L 524 833 L 525 833 L 525 832 L 526 831 L 527 831 L 527 830 L 526 829 L 527 828 L 527 826 L 528 825 L 529 825 L 529 824 L 530 823 L 531 823 L 531 818 L 532 817 L 533 817 L 533 810 L 532 810 L 531 809 L 531 806 L 532 805 L 533 805 L 533 802 L 534 801 L 535 801 L 535 796 L 534 796 L 533 795 L 533 792 L 534 791 L 539 791 L 540 792 L 540 793 L 543 793 L 544 794 L 544 795 L 545 795 L 546 796 L 546 797 L 551 797 L 552 798 L 552 799 L 553 799 L 554 800 L 554 801 L 557 801 L 558 802 L 558 803 L 561 803 L 562 804 L 562 805 L 563 805 L 564 806 L 564 807 L 567 807 L 568 808 L 568 809 L 569 809 L 570 810 L 570 811 L 571 811 L 572 812 L 572 813 L 575 813 L 576 814 L 576 815 L 577 815 L 578 816 L 578 817 L 579 817 L 580 818 L 580 819 L 583 819 L 584 820 L 584 821 L 585 821 L 586 822 L 586 823 L 593 823 L 594 824 L 594 825 L 596 827 L 597 827 L 598 828 L 598 829 L 601 829 L 602 830 L 602 831 L 605 831 L 605 830 L 606 829 L 607 829 L 607 828 L 610 825 L 611 825 L 611 824 L 612 823 L 613 823 L 614 824 L 614 825 L 617 825 L 618 826 L 618 827 L 623 827 L 624 828 L 624 829 L 627 829 L 628 830 L 628 831 L 631 831 L 632 832 L 632 833 L 633 833 L 634 834 L 634 835 L 639 835 L 640 836 L 640 839 L 647 839 L 648 840 L 648 841 L 651 841 L 652 842 L 652 843 L 653 843 L 654 844 L 654 845 L 659 845 L 660 846 L 660 847 L 665 847 L 666 848 L 666 849 L 671 849 L 672 850 L 672 851 L 677 851 L 677 850 L 678 849 L 681 849 L 681 846 L 682 845 L 683 845 L 683 844 L 682 844 L 681 843 L 681 840 L 674 840 L 673 839 L 673 838 L 672 837 L 669 837 L 667 835 L 667 834 L 664 834 L 663 833 L 663 832 L 662 832 L 661 831 L 661 830 L 658 830 L 657 829 L 657 828 L 655 828 L 653 826 L 652 826 L 651 825 L 651 824 L 648 824 L 647 823 L 647 822 L 644 822 L 643 821 L 643 820 L 642 820 L 641 819 L 641 818 L 638 818 L 637 817 L 637 816 L 634 816 L 632 814 L 630 814 L 629 813 L 629 812 L 625 812 L 624 811 L 623 811 L 622 810 L 620 810 L 619 809 L 619 808 L 616 808 L 615 807 L 615 806 L 613 806 L 611 804 L 610 804 L 609 803 L 609 802 L 606 802 L 605 801 L 605 800 L 604 800 L 603 799 L 603 798 L 600 798 L 599 797 L 599 796 L 594 796 L 593 795 L 593 792 L 588 792 L 587 791 L 587 790 L 585 790 L 583 788 L 583 786 L 580 786 L 579 785 L 579 784 L 578 784 L 577 783 L 577 782 L 574 782 L 573 781 L 573 780 L 570 780 L 569 779 L 569 776 L 564 776 L 563 775 L 563 774 L 561 774 L 559 772 L 559 770 L 552 770 L 551 769 L 551 768 L 550 768 L 549 767 L 549 766 L 548 766 L 547 765 L 547 764 L 544 764 L 543 763 L 543 762 L 542 762 L 541 761 L 541 760 L 538 760 L 537 759 L 537 758 L 535 758 L 533 756 L 532 756 L 531 755 L 531 754 L 526 754 L 525 753 L 525 752 L 518 752 L 517 751 L 517 746 L 516 746 L 515 745 L 516 744 L 516 743 L 515 742 L 516 741 L 517 741 L 517 728 L 516 728 L 515 727 L 515 726 L 516 725 L 517 725 L 517 720 L 518 719 L 519 719 L 519 712 L 520 711 L 523 711 L 523 710 L 524 709 L 525 709 L 525 708 L 526 707 L 529 707 L 529 706 L 530 705 L 531 705 L 531 704 L 532 703 L 533 703 L 533 702 L 534 701 L 535 701 L 535 698 L 536 697 L 537 697 L 537 695 L 539 693 L 539 692 L 540 691 L 541 691 L 541 690 L 542 689 L 543 689 L 543 686 L 544 685 L 545 685 L 545 683 L 546 682 L 547 682 L 547 680 L 548 679 L 549 679 L 549 678 L 551 676 L 551 674 L 552 673 L 552 671 L 554 669 L 555 669 L 555 664 L 556 663 L 557 663 L 557 654 L 558 653 L 559 653 L 559 650 L 560 649 L 561 649 L 561 648 L 560 648 L 559 647 L 559 646 L 560 645 L 561 645 L 561 640 L 562 639 L 562 635 L 563 634 L 563 630 L 564 629 L 564 624 L 565 623 L 565 618 L 566 617 L 567 617 L 567 612 L 568 611 L 569 611 L 569 610 L 570 609 L 571 609 L 571 608 L 572 607 L 575 607 L 575 606 L 576 605 L 577 605 L 577 604 L 578 603 L 579 603 L 579 602 L 580 601 L 581 601 L 581 598 L 582 597 L 583 597 L 583 594 L 584 593 L 585 593 L 585 592 L 586 591 L 587 591 L 587 590 L 586 590 L 585 589 L 585 588 L 586 587 L 587 587 L 587 586 L 588 585 L 589 585 L 589 584 L 588 584 L 587 583 L 587 580 L 588 579 L 588 574 L 589 573 L 589 572 L 590 571 L 591 571 L 591 570 L 590 570 L 589 569 L 589 568 L 590 567 L 591 567 L 591 558 L 592 557 L 593 557 L 593 550 L 594 549 L 595 549 L 595 542 L 596 541 L 597 541 L 597 538 L 598 537 L 599 537 L 599 536 L 598 536 L 597 535 L 597 533 L 599 531 L 599 528 L 600 527 L 600 526 L 601 525 L 601 522 L 602 521 L 603 521 L 603 508 L 604 507 L 605 507 L 605 484 L 604 484 L 603 483 L 603 480 L 602 480 L 601 479 L 601 471 L 600 470 L 600 461 L 599 460 L 599 457 L 598 456 L 598 452 L 599 451 L 599 449 L 600 448 L 600 447 L 601 446 L 601 444 L 602 443 L 603 443 L 604 442 L 605 442 L 606 441 L 609 441 L 609 440 L 610 439 L 613 439 L 613 436 L 614 435 L 615 435 L 615 432 L 616 431 L 617 431 L 617 418 L 618 417 L 619 417 L 619 414 L 620 413 L 623 413 L 623 412 L 626 409 L 629 409 L 629 400 L 628 400 L 627 399 L 627 382 L 628 381 L 629 381 L 629 374 L 630 373 L 631 373 L 631 362 L 632 361 L 633 361 L 633 360 L 632 360 L 631 359 L 631 354 L 630 354 L 629 353 L 629 350 L 628 350 L 627 349 L 627 346 L 626 346 L 625 345 L 625 344 L 624 344 L 623 343 L 623 334 L 622 334 L 621 333 L 622 332 L 622 331 L 623 330 L 623 328 L 624 327 L 625 327 L 625 326 L 626 325 L 627 325 L 627 324 L 628 323 L 629 323 L 629 320 L 630 319 L 631 319 L 631 316 L 632 315 L 633 315 L 633 307 L 634 306 L 634 296 L 635 295 L 635 292 L 634 291 L 634 287 L 633 286 L 633 282 L 631 280 L 631 272 L 630 272 L 629 271 L 629 262 L 628 262 L 627 261 L 627 258 L 626 258 L 625 257 L 625 252 L 624 252 L 623 251 L 623 250 L 622 250 L 621 249 L 621 248 L 620 248 L 619 247 L 619 242 L 618 242 L 617 241 L 617 236 L 616 236 L 615 235 L 615 232 L 614 232 L 613 231 L 613 226 L 612 226 L 611 225 L 611 224 L 610 224 L 609 223 L 609 220 L 608 220 L 607 219 L 607 216 L 606 216 L 605 215 L 605 214 L 603 212 L 603 210 L 602 210 L 599 207 L 599 204 L 598 204 L 597 203 L 597 202 L 596 202 L 595 201 L 595 198 L 594 198 L 593 197 L 593 196 L 592 196 L 591 195 L 591 194 L 590 194 L 589 193 L 589 190 L 588 190 L 587 189 L 587 188 L 586 188 L 585 187 L 585 186 L 584 186 L 583 185 L 583 184 L 582 184 L 581 183 L 581 182 L 580 182 L 579 181 L 579 180 L 578 180 L 577 179 L 577 178 L 576 178 L 575 177 L 575 176 L 572 176 L 571 175 L 571 174 L 566 174 L 565 173 L 565 172 L 560 172 L 559 171 L 558 171 L 557 170 L 556 170 L 555 169 L 555 168 L 552 168 L 551 167 L 551 166 L 549 166 L 547 164 L 546 164 L 545 163 L 545 162 L 538 162 L 537 161 L 537 160 L 534 160 L 533 159 L 533 158 L 530 158 L 529 157 L 529 156 L 515 156 L 513 154 L 512 154 L 511 153 L 511 152 L 494 152 L 493 151 L 493 150 L 489 150 L 487 148 L 487 146 L 482 146 L 481 145 L 481 144 L 480 144 L 479 143 L 479 142 L 476 142 L 475 141 L 475 140 L 474 140 L 473 139 L 473 136 L 472 136 L 471 135 L 471 134 L 470 134 L 469 133 L 469 131 L 468 130 L 468 129 L 467 128 L 467 126 L 466 126 L 465 125 L 465 124 L 464 124 L 461 121 L 461 120 L 452 120 L 451 119 L 451 118 L 445 118 L 444 117 L 443 117 L 441 115 L 441 114" fill="black" stroke="none" /></svg>